<svg xmlns="http://www.w3.org/2000/svg" width="47" height="47" viewBox="0 0 47 47" fill="none">
<path d="M41.125 23.5C41.125 33.234 33.234 41.125 23.5 41.125M41.125 23.5C41.125 13.766 33.234 5.875 23.5 5.875M41.125 23.5H5.875M23.5 41.125C13.766 41.125 5.875 33.234 5.875 23.5M23.5 41.125C26.7447 41.125 29.375 33.234 29.375 23.5C29.375 13.766 26.7447 5.875 23.5 5.875M23.5 41.125C20.2553 41.125 17.625 33.234 17.625 23.5C17.625 13.766 20.2553 5.875 23.5 5.875M5.875 23.5C5.875 13.766 13.766 5.875 23.5 5.875" stroke="#02A0FC" stroke-width="2" stroke-linecap="round" stroke-linejoin="round"/>
</svg>